<mxfile host="app.diagrams.net" agent="Mozilla/5.0 (Windows NT 10.0; Win64; x64) AppleWebKit/537.36 (KHTML, like Gecko) Chrome/131.0.0.0 Safari/537.36" version="24.8.6">
  <diagram name="Trang-1" id="UFFm1u4WkFK4B3A4Nr7R">
    <mxGraphModel grid="1" page="1" gridSize="10" guides="1" tooltips="1" connect="1" arrows="1" fold="1" pageScale="1" pageWidth="827" pageHeight="1169" math="0" shadow="0">
      <root>
        <mxCell id="0" />
        <mxCell id="1" parent="0" />
        <mxCell id="Ydw3BY_-xRSpBFhiuUFA-3" value="" style="edgeStyle=orthogonalEdgeStyle;rounded=0;orthogonalLoop=1;jettySize=auto;html=1;" edge="1" parent="1" source="Ydw3BY_-xRSpBFhiuUFA-1" target="Ydw3BY_-xRSpBFhiuUFA-2">
          <mxGeometry relative="1" as="geometry" />
        </mxCell>
        <mxCell id="Ydw3BY_-xRSpBFhiuUFA-1" value="start" style="ellipse;whiteSpace=wrap;html=1;" vertex="1" parent="1">
          <mxGeometry x="300" y="30" width="120" height="80" as="geometry" />
        </mxCell>
        <mxCell id="Ydw3BY_-xRSpBFhiuUFA-5" value="" style="edgeStyle=orthogonalEdgeStyle;rounded=0;orthogonalLoop=1;jettySize=auto;html=1;" edge="1" parent="1" source="Ydw3BY_-xRSpBFhiuUFA-2" target="Ydw3BY_-xRSpBFhiuUFA-4">
          <mxGeometry relative="1" as="geometry" />
        </mxCell>
        <mxCell id="O8PpW3pxV4Z2I1tSNXRb-3" value="đúng" style="edgeLabel;html=1;align=center;verticalAlign=middle;resizable=0;points=[];" vertex="1" connectable="0" parent="Ydw3BY_-xRSpBFhiuUFA-5">
          <mxGeometry x="-0.0333" relative="1" as="geometry">
            <mxPoint as="offset" />
          </mxGeometry>
        </mxCell>
        <mxCell id="O8PpW3pxV4Z2I1tSNXRb-2" value="" style="edgeStyle=orthogonalEdgeStyle;rounded=0;orthogonalLoop=1;jettySize=auto;html=1;" edge="1" parent="1" source="Ydw3BY_-xRSpBFhiuUFA-2" target="O8PpW3pxV4Z2I1tSNXRb-1">
          <mxGeometry relative="1" as="geometry" />
        </mxCell>
        <mxCell id="O8PpW3pxV4Z2I1tSNXRb-4" value="sai" style="edgeLabel;html=1;align=center;verticalAlign=middle;resizable=0;points=[];" vertex="1" connectable="0" parent="O8PpW3pxV4Z2I1tSNXRb-2">
          <mxGeometry x="-0.3259" y="1" relative="1" as="geometry">
            <mxPoint as="offset" />
          </mxGeometry>
        </mxCell>
        <mxCell id="Ydw3BY_-xRSpBFhiuUFA-2" value="nhap 1 so bat ki" style="shape=parallelogram;perimeter=parallelogramPerimeter;whiteSpace=wrap;html=1;fixedSize=1;" vertex="1" parent="1">
          <mxGeometry x="300" y="160" width="120" height="60" as="geometry" />
        </mxCell>
        <mxCell id="O8PpW3pxV4Z2I1tSNXRb-10" value="" style="edgeStyle=orthogonalEdgeStyle;rounded=0;orthogonalLoop=1;jettySize=auto;html=1;" edge="1" parent="1" source="Ydw3BY_-xRSpBFhiuUFA-4" target="O8PpW3pxV4Z2I1tSNXRb-9">
          <mxGeometry relative="1" as="geometry" />
        </mxCell>
        <mxCell id="Ydw3BY_-xRSpBFhiuUFA-4" value="kt duoi so la 0,2,4,6,8&amp;nbsp;" style="whiteSpace=wrap;html=1;" vertex="1" parent="1">
          <mxGeometry x="150" y="250" width="120" height="60" as="geometry" />
        </mxCell>
        <mxCell id="O8PpW3pxV4Z2I1tSNXRb-13" value="" style="edgeStyle=orthogonalEdgeStyle;rounded=0;orthogonalLoop=1;jettySize=auto;html=1;" edge="1" parent="1" source="O8PpW3pxV4Z2I1tSNXRb-1" target="O8PpW3pxV4Z2I1tSNXRb-12">
          <mxGeometry relative="1" as="geometry" />
        </mxCell>
        <mxCell id="O8PpW3pxV4Z2I1tSNXRb-1" value="kt khac duoi 0,2,4,6,8" style="whiteSpace=wrap;html=1;" vertex="1" parent="1">
          <mxGeometry x="470" y="250" width="120" height="60" as="geometry" />
        </mxCell>
        <mxCell id="O8PpW3pxV4Z2I1tSNXRb-5" value="" style="ellipse;whiteSpace=wrap;html=1;" vertex="1" parent="1">
          <mxGeometry x="305" y="400" width="110" height="80" as="geometry" />
        </mxCell>
        <mxCell id="O8PpW3pxV4Z2I1tSNXRb-11" value="" style="edgeStyle=orthogonalEdgeStyle;rounded=0;orthogonalLoop=1;jettySize=auto;html=1;" edge="1" parent="1" source="O8PpW3pxV4Z2I1tSNXRb-9" target="O8PpW3pxV4Z2I1tSNXRb-5">
          <mxGeometry relative="1" as="geometry" />
        </mxCell>
        <mxCell id="O8PpW3pxV4Z2I1tSNXRb-9" value="thi là so chan" style="shape=parallelogram;perimeter=parallelogramPerimeter;whiteSpace=wrap;html=1;fixedSize=1;" vertex="1" parent="1">
          <mxGeometry x="150" y="410" width="120" height="60" as="geometry" />
        </mxCell>
        <mxCell id="O8PpW3pxV4Z2I1tSNXRb-15" value="" style="edgeStyle=orthogonalEdgeStyle;rounded=0;orthogonalLoop=1;jettySize=auto;html=1;" edge="1" parent="1" source="O8PpW3pxV4Z2I1tSNXRb-12" target="O8PpW3pxV4Z2I1tSNXRb-5">
          <mxGeometry relative="1" as="geometry" />
        </mxCell>
        <mxCell id="O8PpW3pxV4Z2I1tSNXRb-12" value="thi la so le" style="shape=parallelogram;perimeter=parallelogramPerimeter;whiteSpace=wrap;html=1;fixedSize=1;" vertex="1" parent="1">
          <mxGeometry x="470" y="410" width="120" height="60" as="geometry" />
        </mxCell>
      </root>
    </mxGraphModel>
  </diagram>
</mxfile>
